<mxfile host="app.diagrams.net" modified="2024-04-08T15:51:21.271Z" agent="Mozilla/5.0 (Windows NT 10.0; Win64; x64) AppleWebKit/537.36 (KHTML, like Gecko) Chrome/123.0.0.0 Safari/537.36 Edg/123.0.0.0" etag="_Okr5gkMFx8yENkHenpJ" version="24.2.2" type="github">
  <diagram name="Page-1" id="c4acf3e9-155e-7222-9cf6-157b1a14988f">
    <mxGraphModel dx="3553" dy="1923" grid="1" gridSize="10" guides="1" tooltips="1" connect="1" arrows="1" fold="1" page="1" pageScale="1" pageWidth="850" pageHeight="1100" background="none" math="0" shadow="0">
      <root>
        <mxCell id="0" />
        <mxCell id="1" parent="0" />
        <mxCell id="P6Sqa6nLTFP1nAxvebWK-137" value="用户" style="rounded=0;whiteSpace=wrap;html=1;fontSize=15;" vertex="1" parent="1">
          <mxGeometry x="-595" y="172.5" width="120" height="60" as="geometry" />
        </mxCell>
        <mxCell id="P6Sqa6nLTFP1nAxvebWK-177" value="用户ID" style="ellipse;whiteSpace=wrap;html=1;" vertex="1" parent="1">
          <mxGeometry x="-560" y="272.5" width="100" height="70" as="geometry" />
        </mxCell>
        <mxCell id="P6Sqa6nLTFP1nAxvebWK-178" value="密码" style="ellipse;whiteSpace=wrap;html=1;" vertex="1" parent="1">
          <mxGeometry x="-735" y="207.5" width="100" height="70" as="geometry" />
        </mxCell>
        <mxCell id="P6Sqa6nLTFP1nAxvebWK-179" value="用户名" style="ellipse;whiteSpace=wrap;html=1;" vertex="1" parent="1">
          <mxGeometry x="-425" y="162.5" width="100" height="70" as="geometry" />
        </mxCell>
        <mxCell id="P6Sqa6nLTFP1nAxvebWK-180" value="头像" style="ellipse;whiteSpace=wrap;html=1;" vertex="1" parent="1">
          <mxGeometry x="-525" y="37.5" width="100" height="70" as="geometry" />
        </mxCell>
        <mxCell id="P6Sqa6nLTFP1nAxvebWK-181" value="注册时间" style="ellipse;whiteSpace=wrap;html=1;" vertex="1" parent="1">
          <mxGeometry x="-725" y="57.5" width="100" height="70" as="geometry" />
        </mxCell>
        <mxCell id="P6Sqa6nLTFP1nAxvebWK-183" value="" style="endArrow=none;html=1;rounded=0;entryX=0.5;entryY=1;entryDx=0;entryDy=0;exitX=0.5;exitY=0;exitDx=0;exitDy=0;" edge="1" parent="1" source="P6Sqa6nLTFP1nAxvebWK-177" target="P6Sqa6nLTFP1nAxvebWK-137">
          <mxGeometry width="50" height="50" relative="1" as="geometry">
            <mxPoint x="-655" y="347.5" as="sourcePoint" />
            <mxPoint x="-605" y="302.5" as="targetPoint" />
          </mxGeometry>
        </mxCell>
        <mxCell id="P6Sqa6nLTFP1nAxvebWK-184" value="" style="endArrow=none;html=1;rounded=0;entryX=0;entryY=0.5;entryDx=0;entryDy=0;exitX=1;exitY=0.5;exitDx=0;exitDy=0;" edge="1" parent="1" source="P6Sqa6nLTFP1nAxvebWK-137" target="P6Sqa6nLTFP1nAxvebWK-179">
          <mxGeometry width="50" height="50" relative="1" as="geometry">
            <mxPoint x="-295" y="367.5" as="sourcePoint" />
            <mxPoint x="-245" y="317.5" as="targetPoint" />
          </mxGeometry>
        </mxCell>
        <mxCell id="P6Sqa6nLTFP1nAxvebWK-185" value="" style="endArrow=none;html=1;rounded=0;entryX=0;entryY=0.5;entryDx=0;entryDy=0;exitX=1;exitY=0.5;exitDx=0;exitDy=0;" edge="1" parent="1" source="P6Sqa6nLTFP1nAxvebWK-178" target="P6Sqa6nLTFP1nAxvebWK-137">
          <mxGeometry width="50" height="50" relative="1" as="geometry">
            <mxPoint x="-615" y="427.5" as="sourcePoint" />
            <mxPoint x="-565" y="377.5" as="targetPoint" />
          </mxGeometry>
        </mxCell>
        <mxCell id="P6Sqa6nLTFP1nAxvebWK-186" value="" style="endArrow=none;html=1;rounded=0;entryX=0;entryY=1;entryDx=0;entryDy=0;exitX=0.5;exitY=0;exitDx=0;exitDy=0;" edge="1" parent="1" source="P6Sqa6nLTFP1nAxvebWK-137" target="P6Sqa6nLTFP1nAxvebWK-180">
          <mxGeometry width="50" height="50" relative="1" as="geometry">
            <mxPoint x="-575" y="147.5" as="sourcePoint" />
            <mxPoint x="-525" y="97.5" as="targetPoint" />
          </mxGeometry>
        </mxCell>
        <mxCell id="P6Sqa6nLTFP1nAxvebWK-187" value="" style="endArrow=none;html=1;rounded=0;entryX=1;entryY=1;entryDx=0;entryDy=0;exitX=0;exitY=0;exitDx=0;exitDy=0;" edge="1" parent="1" source="P6Sqa6nLTFP1nAxvebWK-137" target="P6Sqa6nLTFP1nAxvebWK-181">
          <mxGeometry width="50" height="50" relative="1" as="geometry">
            <mxPoint x="-685" y="407.5" as="sourcePoint" />
            <mxPoint x="-635" y="357.5" as="targetPoint" />
          </mxGeometry>
        </mxCell>
        <mxCell id="P6Sqa6nLTFP1nAxvebWK-188" value="文献" style="rounded=0;whiteSpace=wrap;html=1;fontSize=15;" vertex="1" parent="1">
          <mxGeometry x="-610" y="655" width="120" height="60" as="geometry" />
        </mxCell>
        <mxCell id="P6Sqa6nLTFP1nAxvebWK-189" value="文献ID" style="ellipse;whiteSpace=wrap;html=1;" vertex="1" parent="1">
          <mxGeometry x="-660" y="530" width="100" height="70" as="geometry" />
        </mxCell>
        <mxCell id="P6Sqa6nLTFP1nAxvebWK-190" value="标题" style="ellipse;whiteSpace=wrap;html=1;" vertex="1" parent="1">
          <mxGeometry x="-540" y="780" width="100" height="70" as="geometry" />
        </mxCell>
        <mxCell id="P6Sqa6nLTFP1nAxvebWK-191" value="作者" style="ellipse;whiteSpace=wrap;html=1;" vertex="1" parent="1">
          <mxGeometry x="-610" y="870" width="100" height="70" as="geometry" />
        </mxCell>
        <mxCell id="P6Sqa6nLTFP1nAxvebWK-192" value="摘要" style="ellipse;whiteSpace=wrap;html=1;" vertex="1" parent="1">
          <mxGeometry x="-790" y="745" width="100" height="70" as="geometry" />
        </mxCell>
        <mxCell id="P6Sqa6nLTFP1nAxvebWK-193" value="发布时间" style="ellipse;whiteSpace=wrap;html=1;" vertex="1" parent="1">
          <mxGeometry x="-840" y="580" width="100" height="70" as="geometry" />
        </mxCell>
        <mxCell id="P6Sqa6nLTFP1nAxvebWK-194" value="期刊" style="ellipse;whiteSpace=wrap;html=1;" vertex="1" parent="1">
          <mxGeometry x="-770" y="515" width="100" height="70" as="geometry" />
        </mxCell>
        <mxCell id="P6Sqa6nLTFP1nAxvebWK-195" value="引用数" style="ellipse;whiteSpace=wrap;html=1;" vertex="1" parent="1">
          <mxGeometry x="-780" y="655" width="100" height="70" as="geometry" />
        </mxCell>
        <mxCell id="P6Sqa6nLTFP1nAxvebWK-196" value="原文地址" style="ellipse;whiteSpace=wrap;html=1;" vertex="1" parent="1">
          <mxGeometry x="-700" y="790" width="100" height="70" as="geometry" />
        </mxCell>
        <mxCell id="P6Sqa6nLTFP1nAxvebWK-197" value="阅读次数" style="ellipse;whiteSpace=wrap;html=1;" vertex="1" parent="1">
          <mxGeometry x="-400" y="525" width="100" height="70" as="geometry" />
        </mxCell>
        <mxCell id="P6Sqa6nLTFP1nAxvebWK-198" value="点赞数" style="ellipse;whiteSpace=wrap;html=1;" vertex="1" parent="1">
          <mxGeometry x="-425" y="790" width="100" height="70" as="geometry" />
        </mxCell>
        <mxCell id="P6Sqa6nLTFP1nAxvebWK-199" value="收藏数" style="ellipse;whiteSpace=wrap;html=1;" vertex="1" parent="1">
          <mxGeometry x="-570" y="450" width="100" height="70" as="geometry" />
        </mxCell>
        <mxCell id="P6Sqa6nLTFP1nAxvebWK-200" value="评论数" style="ellipse;whiteSpace=wrap;html=1;" vertex="1" parent="1">
          <mxGeometry x="-410" y="610" width="100" height="70" as="geometry" />
        </mxCell>
        <mxCell id="P6Sqa6nLTFP1nAxvebWK-201" value="评分" style="ellipse;whiteSpace=wrap;html=1;" vertex="1" parent="1">
          <mxGeometry x="-300" y="665" width="100" height="70" as="geometry" />
        </mxCell>
        <mxCell id="P6Sqa6nLTFP1nAxvebWK-202" value="下载量" style="ellipse;whiteSpace=wrap;html=1;" vertex="1" parent="1">
          <mxGeometry x="-520" y="530" width="100" height="70" as="geometry" />
        </mxCell>
        <mxCell id="P6Sqa6nLTFP1nAxvebWK-203" value="本地地址" style="ellipse;whiteSpace=wrap;html=1;" vertex="1" parent="1">
          <mxGeometry x="-400" y="710" width="100" height="70" as="geometry" />
        </mxCell>
        <mxCell id="P6Sqa6nLTFP1nAxvebWK-204" value="" style="endArrow=none;html=1;rounded=0;entryX=0.5;entryY=0;entryDx=0;entryDy=0;exitX=0.75;exitY=1;exitDx=0;exitDy=0;" edge="1" parent="1" source="P6Sqa6nLTFP1nAxvebWK-188" target="P6Sqa6nLTFP1nAxvebWK-190">
          <mxGeometry width="50" height="50" relative="1" as="geometry">
            <mxPoint x="-550" y="780" as="sourcePoint" />
            <mxPoint x="-500" y="730" as="targetPoint" />
          </mxGeometry>
        </mxCell>
        <mxCell id="P6Sqa6nLTFP1nAxvebWK-205" value="" style="endArrow=none;html=1;rounded=0;exitX=1;exitY=0.5;exitDx=0;exitDy=0;entryX=0.033;entryY=0.747;entryDx=0;entryDy=0;entryPerimeter=0;" edge="1" parent="1" source="P6Sqa6nLTFP1nAxvebWK-188" target="P6Sqa6nLTFP1nAxvebWK-200">
          <mxGeometry width="50" height="50" relative="1" as="geometry">
            <mxPoint x="-490" y="700" as="sourcePoint" />
            <mxPoint x="-440" y="650" as="targetPoint" />
          </mxGeometry>
        </mxCell>
        <mxCell id="P6Sqa6nLTFP1nAxvebWK-206" value="" style="endArrow=none;html=1;rounded=0;exitX=1;exitY=0.5;exitDx=0;exitDy=0;entryX=0;entryY=0.5;entryDx=0;entryDy=0;" edge="1" parent="1" source="P6Sqa6nLTFP1nAxvebWK-195" target="P6Sqa6nLTFP1nAxvebWK-188">
          <mxGeometry width="50" height="50" relative="1" as="geometry">
            <mxPoint x="-680" y="720" as="sourcePoint" />
            <mxPoint x="-630" y="670" as="targetPoint" />
          </mxGeometry>
        </mxCell>
        <mxCell id="P6Sqa6nLTFP1nAxvebWK-208" value="" style="endArrow=none;html=1;rounded=0;entryX=0.617;entryY=1.036;entryDx=0;entryDy=0;entryPerimeter=0;exitX=0.25;exitY=0;exitDx=0;exitDy=0;" edge="1" parent="1" source="P6Sqa6nLTFP1nAxvebWK-188" target="P6Sqa6nLTFP1nAxvebWK-189">
          <mxGeometry width="50" height="50" relative="1" as="geometry">
            <mxPoint x="-490" y="700" as="sourcePoint" />
            <mxPoint x="-440" y="650" as="targetPoint" />
          </mxGeometry>
        </mxCell>
        <mxCell id="P6Sqa6nLTFP1nAxvebWK-209" value="" style="endArrow=none;html=1;rounded=0;entryX=0.363;entryY=0.996;entryDx=0;entryDy=0;entryPerimeter=0;exitX=0.5;exitY=0;exitDx=0;exitDy=0;" edge="1" parent="1" source="P6Sqa6nLTFP1nAxvebWK-188" target="P6Sqa6nLTFP1nAxvebWK-199">
          <mxGeometry width="50" height="50" relative="1" as="geometry">
            <mxPoint x="-490" y="700" as="sourcePoint" />
            <mxPoint x="-440" y="650" as="targetPoint" />
          </mxGeometry>
        </mxCell>
        <mxCell id="P6Sqa6nLTFP1nAxvebWK-210" value="" style="endArrow=none;html=1;rounded=0;entryX=0.396;entryY=0.966;entryDx=0;entryDy=0;entryPerimeter=0;exitX=0.5;exitY=0;exitDx=0;exitDy=0;" edge="1" parent="1" source="P6Sqa6nLTFP1nAxvebWK-188" target="P6Sqa6nLTFP1nAxvebWK-202">
          <mxGeometry width="50" height="50" relative="1" as="geometry">
            <mxPoint x="-510" y="630" as="sourcePoint" />
            <mxPoint x="-440" y="540" as="targetPoint" />
          </mxGeometry>
        </mxCell>
        <mxCell id="P6Sqa6nLTFP1nAxvebWK-211" value="" style="endArrow=none;html=1;rounded=0;entryX=0;entryY=0;entryDx=0;entryDy=0;exitX=1;exitY=1;exitDx=0;exitDy=0;" edge="1" parent="1" source="P6Sqa6nLTFP1nAxvebWK-194" target="P6Sqa6nLTFP1nAxvebWK-188">
          <mxGeometry width="50" height="50" relative="1" as="geometry">
            <mxPoint x="-850" y="780" as="sourcePoint" />
            <mxPoint x="-800" y="730" as="targetPoint" />
          </mxGeometry>
        </mxCell>
        <mxCell id="P6Sqa6nLTFP1nAxvebWK-212" value="" style="endArrow=none;html=1;rounded=0;entryX=1;entryY=0.5;entryDx=0;entryDy=0;exitX=0;exitY=0.25;exitDx=0;exitDy=0;" edge="1" parent="1" source="P6Sqa6nLTFP1nAxvebWK-188" target="P6Sqa6nLTFP1nAxvebWK-193">
          <mxGeometry width="50" height="50" relative="1" as="geometry">
            <mxPoint x="-490" y="590" as="sourcePoint" />
            <mxPoint x="-440" y="540" as="targetPoint" />
          </mxGeometry>
        </mxCell>
        <mxCell id="P6Sqa6nLTFP1nAxvebWK-213" value="" style="endArrow=none;html=1;rounded=0;exitX=0;exitY=1;exitDx=0;exitDy=0;entryX=1;entryY=0;entryDx=0;entryDy=0;" edge="1" parent="1" source="P6Sqa6nLTFP1nAxvebWK-188" target="P6Sqa6nLTFP1nAxvebWK-192">
          <mxGeometry width="50" height="50" relative="1" as="geometry">
            <mxPoint x="-490" y="700" as="sourcePoint" />
            <mxPoint x="-440" y="650" as="targetPoint" />
          </mxGeometry>
        </mxCell>
        <mxCell id="P6Sqa6nLTFP1nAxvebWK-214" value="" style="endArrow=none;html=1;rounded=0;entryX=0.25;entryY=1;entryDx=0;entryDy=0;exitX=0.5;exitY=0;exitDx=0;exitDy=0;" edge="1" parent="1" source="P6Sqa6nLTFP1nAxvebWK-196" target="P6Sqa6nLTFP1nAxvebWK-188">
          <mxGeometry width="50" height="50" relative="1" as="geometry">
            <mxPoint x="-620" y="800" as="sourcePoint" />
            <mxPoint x="-570" y="750" as="targetPoint" />
          </mxGeometry>
        </mxCell>
        <mxCell id="P6Sqa6nLTFP1nAxvebWK-215" value="" style="endArrow=none;html=1;rounded=0;exitX=0.5;exitY=0;exitDx=0;exitDy=0;entryX=0.5;entryY=1;entryDx=0;entryDy=0;" edge="1" parent="1" source="P6Sqa6nLTFP1nAxvebWK-191" target="P6Sqa6nLTFP1nAxvebWK-188">
          <mxGeometry width="50" height="50" relative="1" as="geometry">
            <mxPoint x="-720" y="940" as="sourcePoint" />
            <mxPoint x="-670" y="890" as="targetPoint" />
          </mxGeometry>
        </mxCell>
        <mxCell id="P6Sqa6nLTFP1nAxvebWK-216" value="" style="endArrow=none;html=1;rounded=0;exitX=0;exitY=0.5;exitDx=0;exitDy=0;entryX=1;entryY=0.5;entryDx=0;entryDy=0;" edge="1" parent="1" source="P6Sqa6nLTFP1nAxvebWK-201" target="P6Sqa6nLTFP1nAxvebWK-188">
          <mxGeometry width="50" height="50" relative="1" as="geometry">
            <mxPoint x="-490" y="700" as="sourcePoint" />
            <mxPoint x="-440" y="650" as="targetPoint" />
          </mxGeometry>
        </mxCell>
        <mxCell id="P6Sqa6nLTFP1nAxvebWK-217" value="" style="endArrow=none;html=1;rounded=0;exitX=1;exitY=0;exitDx=0;exitDy=0;entryX=0;entryY=1;entryDx=0;entryDy=0;" edge="1" parent="1" source="P6Sqa6nLTFP1nAxvebWK-188" target="P6Sqa6nLTFP1nAxvebWK-197">
          <mxGeometry width="50" height="50" relative="1" as="geometry">
            <mxPoint x="-470" y="650" as="sourcePoint" />
            <mxPoint x="-420" y="600" as="targetPoint" />
          </mxGeometry>
        </mxCell>
        <mxCell id="P6Sqa6nLTFP1nAxvebWK-218" value="" style="endArrow=none;html=1;rounded=0;exitX=1;exitY=1;exitDx=0;exitDy=0;entryX=0;entryY=0.5;entryDx=0;entryDy=0;" edge="1" parent="1" source="P6Sqa6nLTFP1nAxvebWK-188" target="P6Sqa6nLTFP1nAxvebWK-203">
          <mxGeometry width="50" height="50" relative="1" as="geometry">
            <mxPoint x="-280" y="890" as="sourcePoint" />
            <mxPoint x="-230" y="840" as="targetPoint" />
          </mxGeometry>
        </mxCell>
        <mxCell id="P6Sqa6nLTFP1nAxvebWK-219" value="" style="endArrow=none;html=1;rounded=0;entryX=0.905;entryY=1.02;entryDx=0;entryDy=0;entryPerimeter=0;exitX=0;exitY=0;exitDx=0;exitDy=0;" edge="1" parent="1" source="P6Sqa6nLTFP1nAxvebWK-198" target="P6Sqa6nLTFP1nAxvebWK-188">
          <mxGeometry width="50" height="50" relative="1" as="geometry">
            <mxPoint x="-280" y="890" as="sourcePoint" />
            <mxPoint x="-230" y="840" as="targetPoint" />
          </mxGeometry>
        </mxCell>
        <mxCell id="P6Sqa6nLTFP1nAxvebWK-220" value="文献收藏" style="rhombus;whiteSpace=wrap;html=1;fontSize=15;" vertex="1" parent="1">
          <mxGeometry x="10" y="100" width="210" height="92.5" as="geometry" />
        </mxCell>
        <mxCell id="P6Sqa6nLTFP1nAxvebWK-221" value="用户ID" style="ellipse;whiteSpace=wrap;html=1;" vertex="1" parent="1">
          <mxGeometry x="-140" y="115" width="100" height="70" as="geometry" />
        </mxCell>
        <mxCell id="P6Sqa6nLTFP1nAxvebWK-222" value="文献ID" style="ellipse;whiteSpace=wrap;html=1;" vertex="1" parent="1">
          <mxGeometry x="280" y="115" width="100" height="70" as="geometry" />
        </mxCell>
        <mxCell id="P6Sqa6nLTFP1nAxvebWK-223" value="" style="endArrow=none;html=1;rounded=0;entryX=0;entryY=0.5;entryDx=0;entryDy=0;exitX=1;exitY=0.5;exitDx=0;exitDy=0;" edge="1" parent="1" source="P6Sqa6nLTFP1nAxvebWK-220" target="P6Sqa6nLTFP1nAxvebWK-222">
          <mxGeometry width="50" height="50" relative="1" as="geometry">
            <mxPoint x="200" y="350" as="sourcePoint" />
            <mxPoint x="250" y="300" as="targetPoint" />
          </mxGeometry>
        </mxCell>
        <mxCell id="P6Sqa6nLTFP1nAxvebWK-224" value="" style="endArrow=none;html=1;rounded=0;entryX=0;entryY=0.5;entryDx=0;entryDy=0;exitX=1;exitY=0.5;exitDx=0;exitDy=0;" edge="1" parent="1" source="P6Sqa6nLTFP1nAxvebWK-221" target="P6Sqa6nLTFP1nAxvebWK-220">
          <mxGeometry width="50" height="50" relative="1" as="geometry">
            <mxPoint x="-30" y="310" as="sourcePoint" />
            <mxPoint x="20" y="260" as="targetPoint" />
          </mxGeometry>
        </mxCell>
        <mxCell id="P6Sqa6nLTFP1nAxvebWK-225" value="文献点赞" style="rhombus;whiteSpace=wrap;html=1;fontSize=15;" vertex="1" parent="1">
          <mxGeometry x="5" y="272.5" width="210" height="92.5" as="geometry" />
        </mxCell>
        <mxCell id="P6Sqa6nLTFP1nAxvebWK-226" value="用户ID" style="ellipse;whiteSpace=wrap;html=1;" vertex="1" parent="1">
          <mxGeometry x="-145" y="287.5" width="100" height="70" as="geometry" />
        </mxCell>
        <mxCell id="P6Sqa6nLTFP1nAxvebWK-227" value="文献ID" style="ellipse;whiteSpace=wrap;html=1;" vertex="1" parent="1">
          <mxGeometry x="275" y="287.5" width="100" height="70" as="geometry" />
        </mxCell>
        <mxCell id="P6Sqa6nLTFP1nAxvebWK-228" value="" style="endArrow=none;html=1;rounded=0;entryX=0;entryY=0.5;entryDx=0;entryDy=0;exitX=1;exitY=0.5;exitDx=0;exitDy=0;" edge="1" source="P6Sqa6nLTFP1nAxvebWK-225" target="P6Sqa6nLTFP1nAxvebWK-227" parent="1">
          <mxGeometry width="50" height="50" relative="1" as="geometry">
            <mxPoint x="195" y="522.5" as="sourcePoint" />
            <mxPoint x="245" y="472.5" as="targetPoint" />
          </mxGeometry>
        </mxCell>
        <mxCell id="P6Sqa6nLTFP1nAxvebWK-229" value="" style="endArrow=none;html=1;rounded=0;entryX=0;entryY=0.5;entryDx=0;entryDy=0;exitX=1;exitY=0.5;exitDx=0;exitDy=0;" edge="1" source="P6Sqa6nLTFP1nAxvebWK-226" target="P6Sqa6nLTFP1nAxvebWK-225" parent="1">
          <mxGeometry width="50" height="50" relative="1" as="geometry">
            <mxPoint x="-35" y="482.5" as="sourcePoint" />
            <mxPoint x="15" y="432.5" as="targetPoint" />
          </mxGeometry>
        </mxCell>
        <mxCell id="P6Sqa6nLTFP1nAxvebWK-230" value="文献评分" style="rhombus;whiteSpace=wrap;html=1;fontSize=15;" vertex="1" parent="1">
          <mxGeometry x="10" y="468.75" width="210" height="92.5" as="geometry" />
        </mxCell>
        <mxCell id="P6Sqa6nLTFP1nAxvebWK-231" value="用户ID" style="ellipse;whiteSpace=wrap;html=1;" vertex="1" parent="1">
          <mxGeometry x="-140" y="483.75" width="100" height="70" as="geometry" />
        </mxCell>
        <mxCell id="P6Sqa6nLTFP1nAxvebWK-232" value="文献ID" style="ellipse;whiteSpace=wrap;html=1;" vertex="1" parent="1">
          <mxGeometry x="280" y="483.75" width="100" height="70" as="geometry" />
        </mxCell>
        <mxCell id="P6Sqa6nLTFP1nAxvebWK-233" value="" style="endArrow=none;html=1;rounded=0;entryX=0;entryY=0.5;entryDx=0;entryDy=0;exitX=1;exitY=0.5;exitDx=0;exitDy=0;" edge="1" source="P6Sqa6nLTFP1nAxvebWK-230" target="P6Sqa6nLTFP1nAxvebWK-232" parent="1">
          <mxGeometry width="50" height="50" relative="1" as="geometry">
            <mxPoint x="200" y="718.75" as="sourcePoint" />
            <mxPoint x="250" y="668.75" as="targetPoint" />
          </mxGeometry>
        </mxCell>
        <mxCell id="P6Sqa6nLTFP1nAxvebWK-234" value="" style="endArrow=none;html=1;rounded=0;entryX=0;entryY=0.5;entryDx=0;entryDy=0;exitX=1;exitY=0.5;exitDx=0;exitDy=0;" edge="1" source="P6Sqa6nLTFP1nAxvebWK-231" target="P6Sqa6nLTFP1nAxvebWK-230" parent="1">
          <mxGeometry width="50" height="50" relative="1" as="geometry">
            <mxPoint x="-30" y="678.75" as="sourcePoint" />
            <mxPoint x="20" y="628.75" as="targetPoint" />
          </mxGeometry>
        </mxCell>
        <mxCell id="P6Sqa6nLTFP1nAxvebWK-235" value="评分" style="ellipse;whiteSpace=wrap;html=1;" vertex="1" parent="1">
          <mxGeometry x="70" y="605" width="100" height="70" as="geometry" />
        </mxCell>
        <mxCell id="P6Sqa6nLTFP1nAxvebWK-236" value="" style="endArrow=none;html=1;rounded=0;entryX=0.5;entryY=1;entryDx=0;entryDy=0;exitX=0.5;exitY=0;exitDx=0;exitDy=0;" edge="1" parent="1" source="P6Sqa6nLTFP1nAxvebWK-235" target="P6Sqa6nLTFP1nAxvebWK-230">
          <mxGeometry width="50" height="50" relative="1" as="geometry">
            <mxPoint x="-40" y="665" as="sourcePoint" />
            <mxPoint x="10" y="615" as="targetPoint" />
          </mxGeometry>
        </mxCell>
        <mxCell id="P6Sqa6nLTFP1nAxvebWK-237" value="上传文献" style="rounded=0;whiteSpace=wrap;html=1;fontSize=15;" vertex="1" parent="1">
          <mxGeometry x="-620" y="1100" width="120" height="60" as="geometry" />
        </mxCell>
        <mxCell id="P6Sqa6nLTFP1nAxvebWK-240" value="上传文献ID" style="ellipse;whiteSpace=wrap;html=1;" vertex="1" parent="1">
          <mxGeometry x="-440" y="1030" width="100" height="70" as="geometry" />
        </mxCell>
        <mxCell id="P6Sqa6nLTFP1nAxvebWK-241" value="用户ID" style="ellipse;whiteSpace=wrap;html=1;" vertex="1" parent="1">
          <mxGeometry x="-670" y="990" width="100" height="70" as="geometry" />
        </mxCell>
        <mxCell id="P6Sqa6nLTFP1nAxvebWK-242" value="本地地址" style="ellipse;whiteSpace=wrap;html=1;" vertex="1" parent="1">
          <mxGeometry x="-475" y="1180" width="100" height="70" as="geometry" />
        </mxCell>
        <mxCell id="P6Sqa6nLTFP1nAxvebWK-243" value="文件格式" style="ellipse;whiteSpace=wrap;html=1;" vertex="1" parent="1">
          <mxGeometry x="-790" y="1080" width="100" height="70" as="geometry" />
        </mxCell>
        <mxCell id="P6Sqa6nLTFP1nAxvebWK-244" value="文件大小" style="ellipse;whiteSpace=wrap;html=1;" vertex="1" parent="1">
          <mxGeometry x="-715" y="1190" width="95" height="70" as="geometry" />
        </mxCell>
        <mxCell id="P6Sqa6nLTFP1nAxvebWK-245" value="" style="endArrow=none;html=1;rounded=0;entryX=0;entryY=0.5;entryDx=0;entryDy=0;exitX=1;exitY=0;exitDx=0;exitDy=0;" edge="1" parent="1" source="P6Sqa6nLTFP1nAxvebWK-237" target="P6Sqa6nLTFP1nAxvebWK-240">
          <mxGeometry width="50" height="50" relative="1" as="geometry">
            <mxPoint x="-530" y="1020" as="sourcePoint" />
            <mxPoint x="-480" y="970" as="targetPoint" />
          </mxGeometry>
        </mxCell>
        <mxCell id="P6Sqa6nLTFP1nAxvebWK-246" value="" style="endArrow=none;html=1;rounded=0;entryX=0.5;entryY=1;entryDx=0;entryDy=0;exitX=0.25;exitY=0;exitDx=0;exitDy=0;" edge="1" parent="1" source="P6Sqa6nLTFP1nAxvebWK-237" target="P6Sqa6nLTFP1nAxvebWK-241">
          <mxGeometry width="50" height="50" relative="1" as="geometry">
            <mxPoint x="-690" y="1160" as="sourcePoint" />
            <mxPoint x="-640" y="1110" as="targetPoint" />
          </mxGeometry>
        </mxCell>
        <mxCell id="P6Sqa6nLTFP1nAxvebWK-247" value="" style="endArrow=none;html=1;rounded=0;exitX=1;exitY=1;exitDx=0;exitDy=0;entryX=0;entryY=0;entryDx=0;entryDy=0;" edge="1" parent="1" source="P6Sqa6nLTFP1nAxvebWK-237" target="P6Sqa6nLTFP1nAxvebWK-242">
          <mxGeometry width="50" height="50" relative="1" as="geometry">
            <mxPoint x="-350" y="1170" as="sourcePoint" />
            <mxPoint x="-300" y="1120" as="targetPoint" />
          </mxGeometry>
        </mxCell>
        <mxCell id="P6Sqa6nLTFP1nAxvebWK-248" value="" style="endArrow=none;html=1;rounded=0;entryX=0;entryY=0.25;entryDx=0;entryDy=0;exitX=1;exitY=0.5;exitDx=0;exitDy=0;" edge="1" parent="1" source="P6Sqa6nLTFP1nAxvebWK-243" target="P6Sqa6nLTFP1nAxvebWK-237">
          <mxGeometry width="50" height="50" relative="1" as="geometry">
            <mxPoint x="-770" y="1030" as="sourcePoint" />
            <mxPoint x="-720" y="980" as="targetPoint" />
          </mxGeometry>
        </mxCell>
        <mxCell id="P6Sqa6nLTFP1nAxvebWK-249" value="" style="endArrow=none;html=1;rounded=0;entryX=0.25;entryY=1;entryDx=0;entryDy=0;exitX=1;exitY=0;exitDx=0;exitDy=0;" edge="1" parent="1" source="P6Sqa6nLTFP1nAxvebWK-244" target="P6Sqa6nLTFP1nAxvebWK-237">
          <mxGeometry width="50" height="50" relative="1" as="geometry">
            <mxPoint x="-400" y="1190" as="sourcePoint" />
            <mxPoint x="-350" y="1140" as="targetPoint" />
          </mxGeometry>
        </mxCell>
        <mxCell id="P6Sqa6nLTFP1nAxvebWK-250" value="上传时间" style="ellipse;whiteSpace=wrap;html=1;" vertex="1" parent="1">
          <mxGeometry x="-590" y="1240" width="100" height="70" as="geometry" />
        </mxCell>
        <mxCell id="P6Sqa6nLTFP1nAxvebWK-251" value="标题" style="ellipse;whiteSpace=wrap;html=1;" vertex="1" parent="1">
          <mxGeometry x="-550" y="960" width="100" height="70" as="geometry" />
        </mxCell>
        <mxCell id="P6Sqa6nLTFP1nAxvebWK-252" value="" style="endArrow=none;html=1;rounded=0;entryX=0.5;entryY=1;entryDx=0;entryDy=0;exitX=0.75;exitY=0;exitDx=0;exitDy=0;" edge="1" parent="1" source="P6Sqa6nLTFP1nAxvebWK-237" target="P6Sqa6nLTFP1nAxvebWK-251">
          <mxGeometry width="50" height="50" relative="1" as="geometry">
            <mxPoint x="-270" y="1160" as="sourcePoint" />
            <mxPoint x="-220" y="1110" as="targetPoint" />
          </mxGeometry>
        </mxCell>
        <mxCell id="P6Sqa6nLTFP1nAxvebWK-253" value="" style="endArrow=none;html=1;rounded=0;entryX=0.5;entryY=1;entryDx=0;entryDy=0;exitX=0.5;exitY=0;exitDx=0;exitDy=0;" edge="1" parent="1" source="P6Sqa6nLTFP1nAxvebWK-250" target="P6Sqa6nLTFP1nAxvebWK-237">
          <mxGeometry width="50" height="50" relative="1" as="geometry">
            <mxPoint x="-720" y="1360" as="sourcePoint" />
            <mxPoint x="-670" y="1310" as="targetPoint" />
          </mxGeometry>
        </mxCell>
        <mxCell id="P6Sqa6nLTFP1nAxvebWK-254" value="搜索记录" style="rounded=0;whiteSpace=wrap;html=1;fontSize=15;" vertex="1" parent="1">
          <mxGeometry x="-645" y="1430" width="120" height="60" as="geometry" />
        </mxCell>
        <mxCell id="P6Sqa6nLTFP1nAxvebWK-255" value="用户ID" style="ellipse;whiteSpace=wrap;html=1;" vertex="1" parent="1">
          <mxGeometry x="-790" y="1350" width="100" height="70" as="geometry" />
        </mxCell>
        <mxCell id="P6Sqa6nLTFP1nAxvebWK-257" value="搜索记录ID" style="ellipse;whiteSpace=wrap;html=1;" vertex="1" parent="1">
          <mxGeometry x="-450" y="1430" width="100" height="70" as="geometry" />
        </mxCell>
        <mxCell id="P6Sqa6nLTFP1nAxvebWK-259" value="搜索关键字" style="ellipse;whiteSpace=wrap;html=1;" vertex="1" parent="1">
          <mxGeometry x="-780" y="1500" width="100" height="70" as="geometry" />
        </mxCell>
        <mxCell id="P6Sqa6nLTFP1nAxvebWK-260" value="" style="endArrow=none;html=1;rounded=0;entryX=0;entryY=1;entryDx=0;entryDy=0;exitX=1;exitY=0;exitDx=0;exitDy=0;" edge="1" parent="1" source="P6Sqa6nLTFP1nAxvebWK-259" target="P6Sqa6nLTFP1nAxvebWK-254">
          <mxGeometry width="50" height="50" relative="1" as="geometry">
            <mxPoint x="-740" y="1690" as="sourcePoint" />
            <mxPoint x="-690" y="1640" as="targetPoint" />
          </mxGeometry>
        </mxCell>
        <mxCell id="P6Sqa6nLTFP1nAxvebWK-261" value="" style="endArrow=none;html=1;rounded=0;entryX=0;entryY=0.5;entryDx=0;entryDy=0;exitX=1;exitY=0.5;exitDx=0;exitDy=0;" edge="1" parent="1" source="P6Sqa6nLTFP1nAxvebWK-254" target="P6Sqa6nLTFP1nAxvebWK-257">
          <mxGeometry width="50" height="50" relative="1" as="geometry">
            <mxPoint x="-600" y="1620" as="sourcePoint" />
            <mxPoint x="-550" y="1570" as="targetPoint" />
          </mxGeometry>
        </mxCell>
        <mxCell id="P6Sqa6nLTFP1nAxvebWK-262" value="" style="endArrow=none;html=1;rounded=0;exitX=1;exitY=1;exitDx=0;exitDy=0;entryX=0;entryY=0.25;entryDx=0;entryDy=0;" edge="1" parent="1" source="P6Sqa6nLTFP1nAxvebWK-255" target="P6Sqa6nLTFP1nAxvebWK-254">
          <mxGeometry width="50" height="50" relative="1" as="geometry">
            <mxPoint x="-650" y="1410" as="sourcePoint" />
            <mxPoint x="-600" y="1360" as="targetPoint" />
          </mxGeometry>
        </mxCell>
        <mxCell id="P6Sqa6nLTFP1nAxvebWK-263" value="对话记录" style="rhombus;whiteSpace=wrap;html=1;fontSize=15;" vertex="1" parent="1">
          <mxGeometry y="800" width="210" height="92.5" as="geometry" />
        </mxCell>
        <mxCell id="P6Sqa6nLTFP1nAxvebWK-264" value="用户ID" style="ellipse;whiteSpace=wrap;html=1;" vertex="1" parent="1">
          <mxGeometry x="-120" y="715" width="100" height="70" as="geometry" />
        </mxCell>
        <mxCell id="P6Sqa6nLTFP1nAxvebWK-265" value="文献本地地址" style="ellipse;whiteSpace=wrap;html=1;" vertex="1" parent="1">
          <mxGeometry x="270" y="790" width="100" height="70" as="geometry" />
        </mxCell>
        <mxCell id="P6Sqa6nLTFP1nAxvebWK-266" value="对话记录文件地址" style="ellipse;whiteSpace=wrap;html=1;" vertex="1" parent="1">
          <mxGeometry x="10" y="945" width="140" height="75" as="geometry" />
        </mxCell>
        <mxCell id="P6Sqa6nLTFP1nAxvebWK-268" value="" style="endArrow=none;html=1;rounded=0;entryX=0;entryY=0.5;entryDx=0;entryDy=0;exitX=1;exitY=0.5;exitDx=0;exitDy=0;" edge="1" parent="1" source="P6Sqa6nLTFP1nAxvebWK-263" target="P6Sqa6nLTFP1nAxvebWK-265">
          <mxGeometry width="50" height="50" relative="1" as="geometry">
            <mxPoint x="150" y="955" as="sourcePoint" />
            <mxPoint x="200" y="905" as="targetPoint" />
          </mxGeometry>
        </mxCell>
        <mxCell id="P6Sqa6nLTFP1nAxvebWK-269" value="" style="endArrow=none;html=1;rounded=0;entryX=0;entryY=0;entryDx=0;entryDy=0;exitX=1;exitY=1;exitDx=0;exitDy=0;" edge="1" parent="1" source="P6Sqa6nLTFP1nAxvebWK-264" target="P6Sqa6nLTFP1nAxvebWK-263">
          <mxGeometry width="50" height="50" relative="1" as="geometry">
            <mxPoint x="-50" y="845" as="sourcePoint" />
            <mxPoint y="795" as="targetPoint" />
          </mxGeometry>
        </mxCell>
        <mxCell id="P6Sqa6nLTFP1nAxvebWK-270" value="" style="endArrow=none;html=1;rounded=0;entryX=0.5;entryY=1;entryDx=0;entryDy=0;exitX=0.5;exitY=0;exitDx=0;exitDy=0;" edge="1" parent="1" source="P6Sqa6nLTFP1nAxvebWK-266" target="P6Sqa6nLTFP1nAxvebWK-263">
          <mxGeometry width="50" height="50" relative="1" as="geometry">
            <mxPoint x="-120" y="1025" as="sourcePoint" />
            <mxPoint x="-70" y="975" as="targetPoint" />
          </mxGeometry>
        </mxCell>
        <mxCell id="P6Sqa6nLTFP1nAxvebWK-271" value="摘要报告" style="rounded=0;whiteSpace=wrap;html=1;fontSize=15;" vertex="1" parent="1">
          <mxGeometry x="-625" y="1625" width="120" height="60" as="geometry" />
        </mxCell>
        <mxCell id="P6Sqa6nLTFP1nAxvebWK-272" value="摘要报告地址" style="ellipse;whiteSpace=wrap;html=1;" vertex="1" parent="1">
          <mxGeometry x="-440" y="1615" width="100" height="70" as="geometry" />
        </mxCell>
        <mxCell id="P6Sqa6nLTFP1nAxvebWK-273" value="文献本地地址" style="ellipse;whiteSpace=wrap;html=1;" vertex="1" parent="1">
          <mxGeometry x="-790" y="1615" width="100" height="70" as="geometry" />
        </mxCell>
        <mxCell id="P6Sqa6nLTFP1nAxvebWK-274" value="" style="endArrow=none;html=1;rounded=0;entryX=0;entryY=0.5;entryDx=0;entryDy=0;exitX=1;exitY=0.5;exitDx=0;exitDy=0;" edge="1" parent="1" source="P6Sqa6nLTFP1nAxvebWK-273" target="P6Sqa6nLTFP1nAxvebWK-271">
          <mxGeometry width="50" height="50" relative="1" as="geometry">
            <mxPoint x="-730" y="1780" as="sourcePoint" />
            <mxPoint x="-680" y="1730" as="targetPoint" />
          </mxGeometry>
        </mxCell>
        <mxCell id="P6Sqa6nLTFP1nAxvebWK-275" value="" style="endArrow=none;html=1;rounded=0;entryX=0;entryY=0.5;entryDx=0;entryDy=0;exitX=1;exitY=0.5;exitDx=0;exitDy=0;" edge="1" parent="1" source="P6Sqa6nLTFP1nAxvebWK-271" target="P6Sqa6nLTFP1nAxvebWK-272">
          <mxGeometry width="50" height="50" relative="1" as="geometry">
            <mxPoint x="-550" y="1820" as="sourcePoint" />
            <mxPoint x="-500" y="1770" as="targetPoint" />
          </mxGeometry>
        </mxCell>
        <mxCell id="P6Sqa6nLTFP1nAxvebWK-276" value="综述报告" style="rounded=0;whiteSpace=wrap;html=1;fontSize=15;" vertex="1" parent="1">
          <mxGeometry x="-620" y="1760" width="120" height="60" as="geometry" />
        </mxCell>
        <mxCell id="P6Sqa6nLTFP1nAxvebWK-277" value="综述报告地址" style="ellipse;whiteSpace=wrap;html=1;" vertex="1" parent="1">
          <mxGeometry x="-440" y="1750" width="100" height="70" as="geometry" />
        </mxCell>
        <mxCell id="P6Sqa6nLTFP1nAxvebWK-278" value="用户ID" style="ellipse;whiteSpace=wrap;html=1;" vertex="1" parent="1">
          <mxGeometry x="-780" y="1750" width="100" height="70" as="geometry" />
        </mxCell>
        <mxCell id="P6Sqa6nLTFP1nAxvebWK-279" value="" style="endArrow=none;html=1;rounded=0;exitX=1;exitY=0.5;exitDx=0;exitDy=0;entryX=0;entryY=0.5;entryDx=0;entryDy=0;" edge="1" parent="1" source="P6Sqa6nLTFP1nAxvebWK-276" target="P6Sqa6nLTFP1nAxvebWK-277">
          <mxGeometry width="50" height="50" relative="1" as="geometry">
            <mxPoint x="-610" y="1950" as="sourcePoint" />
            <mxPoint x="-440" y="1790" as="targetPoint" />
          </mxGeometry>
        </mxCell>
        <mxCell id="P6Sqa6nLTFP1nAxvebWK-280" value="" style="endArrow=none;html=1;rounded=0;entryX=0;entryY=0.5;entryDx=0;entryDy=0;exitX=1;exitY=0.5;exitDx=0;exitDy=0;" edge="1" parent="1" source="P6Sqa6nLTFP1nAxvebWK-278" target="P6Sqa6nLTFP1nAxvebWK-276">
          <mxGeometry width="50" height="50" relative="1" as="geometry">
            <mxPoint x="-690" y="1900" as="sourcePoint" />
            <mxPoint x="-640" y="1850" as="targetPoint" />
          </mxGeometry>
        </mxCell>
        <mxCell id="P6Sqa6nLTFP1nAxvebWK-281" value="" style="endArrow=none;html=1;rounded=0;entryX=0.5;entryY=1;entryDx=0;entryDy=0;exitX=0.5;exitY=0;exitDx=0;exitDy=0;" edge="1" parent="1" source="P6Sqa6nLTFP1nAxvebWK-283" target="P6Sqa6nLTFP1nAxvebWK-276">
          <mxGeometry width="50" height="50" relative="1" as="geometry">
            <mxPoint x="-680" y="1910" as="sourcePoint" />
            <mxPoint x="-630" y="1860" as="targetPoint" />
          </mxGeometry>
        </mxCell>
        <mxCell id="P6Sqa6nLTFP1nAxvebWK-283" value="时间" style="ellipse;whiteSpace=wrap;html=1;" vertex="1" parent="1">
          <mxGeometry x="-595" y="1870" width="100" height="70" as="geometry" />
        </mxCell>
        <mxCell id="P6Sqa6nLTFP1nAxvebWK-284" value="评论举报" style="rhombus;whiteSpace=wrap;html=1;fontSize=15;" vertex="1" parent="1">
          <mxGeometry x="-40" y="1280" width="210" height="92.5" as="geometry" />
        </mxCell>
        <mxCell id="P6Sqa6nLTFP1nAxvebWK-285" value="用户ID" style="ellipse;whiteSpace=wrap;html=1;" vertex="1" parent="1">
          <mxGeometry x="-220" y="1260" width="100" height="70" as="geometry" />
        </mxCell>
        <mxCell id="P6Sqa6nLTFP1nAxvebWK-286" value="评论ID" style="ellipse;whiteSpace=wrap;html=1;" vertex="1" parent="1">
          <mxGeometry x="270" y="1240" width="100" height="70" as="geometry" />
        </mxCell>
        <mxCell id="P6Sqa6nLTFP1nAxvebWK-287" value="" style="endArrow=none;html=1;rounded=0;entryX=0;entryY=0.5;entryDx=0;entryDy=0;exitX=1;exitY=0.5;exitDx=0;exitDy=0;" edge="1" source="P6Sqa6nLTFP1nAxvebWK-284" target="P6Sqa6nLTFP1nAxvebWK-286" parent="1">
          <mxGeometry width="50" height="50" relative="1" as="geometry">
            <mxPoint x="210" y="1520" as="sourcePoint" />
            <mxPoint x="260" y="1470" as="targetPoint" />
          </mxGeometry>
        </mxCell>
        <mxCell id="P6Sqa6nLTFP1nAxvebWK-288" value="" style="endArrow=none;html=1;rounded=0;entryX=0;entryY=0.5;entryDx=0;entryDy=0;exitX=1;exitY=0.5;exitDx=0;exitDy=0;" edge="1" source="P6Sqa6nLTFP1nAxvebWK-285" target="P6Sqa6nLTFP1nAxvebWK-284" parent="1">
          <mxGeometry width="50" height="50" relative="1" as="geometry">
            <mxPoint x="-20" y="1480" as="sourcePoint" />
            <mxPoint x="30" y="1430" as="targetPoint" />
          </mxGeometry>
        </mxCell>
        <mxCell id="P6Sqa6nLTFP1nAxvebWK-289" value="评论点赞" style="rhombus;whiteSpace=wrap;html=1;fontSize=15;" vertex="1" parent="1">
          <mxGeometry x="-10" y="1070" width="210" height="92.5" as="geometry" />
        </mxCell>
        <mxCell id="P6Sqa6nLTFP1nAxvebWK-290" value="用户ID" style="ellipse;whiteSpace=wrap;html=1;" vertex="1" parent="1">
          <mxGeometry x="-160" y="1085" width="100" height="70" as="geometry" />
        </mxCell>
        <mxCell id="P6Sqa6nLTFP1nAxvebWK-291" value="评论ID" style="ellipse;whiteSpace=wrap;html=1;" vertex="1" parent="1">
          <mxGeometry x="260" y="1085" width="100" height="70" as="geometry" />
        </mxCell>
        <mxCell id="P6Sqa6nLTFP1nAxvebWK-292" value="" style="endArrow=none;html=1;rounded=0;entryX=0;entryY=0.5;entryDx=0;entryDy=0;exitX=1;exitY=0.5;exitDx=0;exitDy=0;" edge="1" source="P6Sqa6nLTFP1nAxvebWK-289" target="P6Sqa6nLTFP1nAxvebWK-291" parent="1">
          <mxGeometry width="50" height="50" relative="1" as="geometry">
            <mxPoint x="180" y="1320" as="sourcePoint" />
            <mxPoint x="230" y="1270" as="targetPoint" />
          </mxGeometry>
        </mxCell>
        <mxCell id="P6Sqa6nLTFP1nAxvebWK-293" value="" style="endArrow=none;html=1;rounded=0;entryX=0;entryY=0.5;entryDx=0;entryDy=0;exitX=1;exitY=0.5;exitDx=0;exitDy=0;" edge="1" source="P6Sqa6nLTFP1nAxvebWK-290" target="P6Sqa6nLTFP1nAxvebWK-289" parent="1">
          <mxGeometry width="50" height="50" relative="1" as="geometry">
            <mxPoint x="-50" y="1280" as="sourcePoint" />
            <mxPoint y="1230" as="targetPoint" />
          </mxGeometry>
        </mxCell>
        <mxCell id="P6Sqa6nLTFP1nAxvebWK-294" value="举报时间" style="ellipse;whiteSpace=wrap;html=1;" vertex="1" parent="1">
          <mxGeometry x="-200" y="1380" width="100" height="70" as="geometry" />
        </mxCell>
        <mxCell id="P6Sqa6nLTFP1nAxvebWK-295" value="处理意见" style="ellipse;whiteSpace=wrap;html=1;" vertex="1" parent="1">
          <mxGeometry x="240" y="1390" width="100" height="70" as="geometry" />
        </mxCell>
        <mxCell id="P6Sqa6nLTFP1nAxvebWK-296" value="" style="endArrow=none;html=1;rounded=0;entryX=0;entryY=0.5;entryDx=0;entryDy=0;exitX=1;exitY=0;exitDx=0;exitDy=0;" edge="1" parent="1" source="P6Sqa6nLTFP1nAxvebWK-294" target="P6Sqa6nLTFP1nAxvebWK-284">
          <mxGeometry width="50" height="50" relative="1" as="geometry">
            <mxPoint y="1450" as="sourcePoint" />
            <mxPoint x="50" y="1400" as="targetPoint" />
          </mxGeometry>
        </mxCell>
        <mxCell id="P6Sqa6nLTFP1nAxvebWK-297" value="" style="endArrow=none;html=1;rounded=0;entryX=0;entryY=0;entryDx=0;entryDy=0;exitX=1;exitY=0.5;exitDx=0;exitDy=0;" edge="1" parent="1" source="P6Sqa6nLTFP1nAxvebWK-284" target="P6Sqa6nLTFP1nAxvebWK-295">
          <mxGeometry width="50" height="50" relative="1" as="geometry">
            <mxPoint x="120" y="1460" as="sourcePoint" />
            <mxPoint x="170" y="1410" as="targetPoint" />
          </mxGeometry>
        </mxCell>
        <mxCell id="P6Sqa6nLTFP1nAxvebWK-298" value="文献评论" style="rounded=0;whiteSpace=wrap;html=1;fontSize=15;" vertex="1" parent="1">
          <mxGeometry x="-30" y="1650" width="120" height="60" as="geometry" />
        </mxCell>
        <mxCell id="P6Sqa6nLTFP1nAxvebWK-300" value="用户ID" style="ellipse;whiteSpace=wrap;html=1;" vertex="1" parent="1">
          <mxGeometry x="-170" y="1500" width="100" height="70" as="geometry" />
        </mxCell>
        <mxCell id="P6Sqa6nLTFP1nAxvebWK-301" value="文献ID" style="ellipse;whiteSpace=wrap;html=1;" vertex="1" parent="1">
          <mxGeometry x="-10" y="1500" width="100" height="70" as="geometry" />
        </mxCell>
        <mxCell id="P6Sqa6nLTFP1nAxvebWK-302" value="评论ID" style="ellipse;whiteSpace=wrap;html=1;" vertex="1" parent="1">
          <mxGeometry x="160" y="1520" width="100" height="70" as="geometry" />
        </mxCell>
        <mxCell id="P6Sqa6nLTFP1nAxvebWK-303" value="时间" style="ellipse;whiteSpace=wrap;html=1;" vertex="1" parent="1">
          <mxGeometry x="190" y="1645" width="100" height="70" as="geometry" />
        </mxCell>
        <mxCell id="P6Sqa6nLTFP1nAxvebWK-304" value="内容" style="ellipse;whiteSpace=wrap;html=1;" vertex="1" parent="1">
          <mxGeometry x="150" y="1750" width="100" height="70" as="geometry" />
        </mxCell>
        <mxCell id="P6Sqa6nLTFP1nAxvebWK-305" value="点赞数" style="ellipse;whiteSpace=wrap;html=1;" vertex="1" parent="1">
          <mxGeometry x="-80" y="1820" width="100" height="70" as="geometry" />
        </mxCell>
        <mxCell id="P6Sqa6nLTFP1nAxvebWK-306" value="一级评论ID" style="ellipse;whiteSpace=wrap;html=1;" vertex="1" parent="1">
          <mxGeometry x="-210" y="1630" width="100" height="70" as="geometry" />
        </mxCell>
        <mxCell id="P6Sqa6nLTFP1nAxvebWK-307" value="恢复评论ID" style="ellipse;whiteSpace=wrap;html=1;" vertex="1" parent="1">
          <mxGeometry x="-200" y="1750" width="100" height="70" as="geometry" />
        </mxCell>
        <mxCell id="P6Sqa6nLTFP1nAxvebWK-308" value="评论级别" style="ellipse;whiteSpace=wrap;html=1;" vertex="1" parent="1">
          <mxGeometry x="50" y="1830" width="100" height="70" as="geometry" />
        </mxCell>
        <mxCell id="P6Sqa6nLTFP1nAxvebWK-309" value="" style="endArrow=none;html=1;rounded=0;entryX=0;entryY=1;entryDx=0;entryDy=0;exitX=1;exitY=0;exitDx=0;exitDy=0;" edge="1" parent="1" source="P6Sqa6nLTFP1nAxvebWK-298" target="P6Sqa6nLTFP1nAxvebWK-302">
          <mxGeometry width="50" height="50" relative="1" as="geometry">
            <mxPoint x="510" y="1670" as="sourcePoint" />
            <mxPoint x="560" y="1620" as="targetPoint" />
          </mxGeometry>
        </mxCell>
        <mxCell id="P6Sqa6nLTFP1nAxvebWK-310" value="" style="endArrow=none;html=1;rounded=0;exitX=1;exitY=1;exitDx=0;exitDy=0;entryX=0;entryY=0;entryDx=0;entryDy=0;" edge="1" parent="1" source="P6Sqa6nLTFP1nAxvebWK-298" target="P6Sqa6nLTFP1nAxvebWK-304">
          <mxGeometry width="50" height="50" relative="1" as="geometry">
            <mxPoint x="320" y="1760" as="sourcePoint" />
            <mxPoint x="370" y="1710" as="targetPoint" />
          </mxGeometry>
        </mxCell>
        <mxCell id="P6Sqa6nLTFP1nAxvebWK-311" value="" style="endArrow=none;html=1;rounded=0;exitX=1;exitY=0.5;exitDx=0;exitDy=0;entryX=0;entryY=0.5;entryDx=0;entryDy=0;" edge="1" parent="1" source="P6Sqa6nLTFP1nAxvebWK-298" target="P6Sqa6nLTFP1nAxvebWK-303">
          <mxGeometry width="50" height="50" relative="1" as="geometry">
            <mxPoint x="410" y="1680" as="sourcePoint" />
            <mxPoint x="460" y="1630" as="targetPoint" />
          </mxGeometry>
        </mxCell>
        <mxCell id="P6Sqa6nLTFP1nAxvebWK-312" value="" style="endArrow=none;html=1;rounded=0;entryX=0;entryY=1;entryDx=0;entryDy=0;exitX=1;exitY=0;exitDx=0;exitDy=0;" edge="1" parent="1" source="P6Sqa6nLTFP1nAxvebWK-307" target="P6Sqa6nLTFP1nAxvebWK-298">
          <mxGeometry width="50" height="50" relative="1" as="geometry">
            <mxPoint x="-80" y="1810" as="sourcePoint" />
            <mxPoint x="-30" y="1760" as="targetPoint" />
          </mxGeometry>
        </mxCell>
        <mxCell id="P6Sqa6nLTFP1nAxvebWK-313" value="" style="endArrow=none;html=1;rounded=0;entryX=1;entryY=1;entryDx=0;entryDy=0;exitX=0;exitY=0;exitDx=0;exitDy=0;" edge="1" parent="1" source="P6Sqa6nLTFP1nAxvebWK-298" target="P6Sqa6nLTFP1nAxvebWK-300">
          <mxGeometry width="50" height="50" relative="1" as="geometry">
            <mxPoint x="-100" y="1640" as="sourcePoint" />
            <mxPoint x="-50" y="1590" as="targetPoint" />
          </mxGeometry>
        </mxCell>
        <mxCell id="P6Sqa6nLTFP1nAxvebWK-314" value="" style="endArrow=none;html=1;rounded=0;exitX=0.5;exitY=0;exitDx=0;exitDy=0;entryX=0.25;entryY=1;entryDx=0;entryDy=0;" edge="1" parent="1" source="P6Sqa6nLTFP1nAxvebWK-305" target="P6Sqa6nLTFP1nAxvebWK-298">
          <mxGeometry width="50" height="50" relative="1" as="geometry">
            <mxPoint x="10" y="1800" as="sourcePoint" />
            <mxPoint x="60" y="1750" as="targetPoint" />
          </mxGeometry>
        </mxCell>
        <mxCell id="P6Sqa6nLTFP1nAxvebWK-315" value="" style="endArrow=none;html=1;rounded=0;entryX=0.75;entryY=1;entryDx=0;entryDy=0;exitX=0.5;exitY=0;exitDx=0;exitDy=0;" edge="1" parent="1" source="P6Sqa6nLTFP1nAxvebWK-308" target="P6Sqa6nLTFP1nAxvebWK-298">
          <mxGeometry width="50" height="50" relative="1" as="geometry">
            <mxPoint x="380" y="1830" as="sourcePoint" />
            <mxPoint x="430" y="1780" as="targetPoint" />
          </mxGeometry>
        </mxCell>
        <mxCell id="P6Sqa6nLTFP1nAxvebWK-316" value="" style="endArrow=none;html=1;rounded=0;entryX=0.5;entryY=1;entryDx=0;entryDy=0;exitX=0.5;exitY=0;exitDx=0;exitDy=0;" edge="1" parent="1" source="P6Sqa6nLTFP1nAxvebWK-298" target="P6Sqa6nLTFP1nAxvebWK-301">
          <mxGeometry width="50" height="50" relative="1" as="geometry">
            <mxPoint x="550" y="1760" as="sourcePoint" />
            <mxPoint x="600" y="1710" as="targetPoint" />
          </mxGeometry>
        </mxCell>
        <mxCell id="P6Sqa6nLTFP1nAxvebWK-317" value="" style="endArrow=none;html=1;rounded=0;entryX=0;entryY=0.5;entryDx=0;entryDy=0;exitX=1;exitY=0.5;exitDx=0;exitDy=0;" edge="1" parent="1" source="P6Sqa6nLTFP1nAxvebWK-306" target="P6Sqa6nLTFP1nAxvebWK-298">
          <mxGeometry width="50" height="50" relative="1" as="geometry">
            <mxPoint x="-150" y="1920" as="sourcePoint" />
            <mxPoint x="-100" y="1870" as="targetPoint" />
          </mxGeometry>
        </mxCell>
      </root>
    </mxGraphModel>
  </diagram>
</mxfile>
